<svg width="20" height="20" viewBox="0 0 20 20" xmlns="http://www.w3.org/2000/svg">
<path d="M8.44444 9.47919C9.32778 9.05696 9.78889 8.41807 9.78889 7.42363C9.78889 5.46252 8.32778 4.98474 6.64167 4.98474H2V14.8292H6.77222C8.56111 14.8292 10.2417 13.9709 10.2417 11.9709C10.2417 10.7347 9.65556 9.82085 8.44444 9.47919ZM4.16389 6.6653H6.19444C6.975 6.6653 7.67778 6.88474 7.67778 7.7903C7.67778 8.62641 7.13056 8.96252 6.35833 8.96252H4.16389V6.6653ZM6.47778 13.157H4.16389V10.4459H6.52222C7.475 10.4459 8.07778 10.8431 8.07778 11.8514C8.07778 12.8459 7.35833 13.157 6.47778 13.157ZM16.4361 6.47085H12.4444V5.50141H16.4361V6.47085ZM18 11.3681C18 9.25974 16.7667 7.50141 14.5306 7.50141C12.3583 7.50141 10.8833 9.13474 10.8833 11.2736C10.8833 13.4931 12.2806 15.0153 14.5306 15.0153C16.2333 15.0153 17.3361 14.2486 17.8667 12.6181H16.1389C15.9528 13.2264 15.1861 13.5486 14.5917 13.5486C13.4444 13.5486 12.8417 12.8764 12.8417 11.7347H17.9833C17.9917 11.6181 18 11.4931 18 11.3681ZM12.8444 10.5014C12.9083 9.5653 13.5306 8.97919 14.4694 8.97919C15.4528 8.97919 15.9472 9.55696 16.0306 10.5014H12.8444Z"/>
</svg>
