<svg width="20" height="20" viewBox="0 0 20 20" xmlns="http://www.w3.org/2000/svg">
<path d="M10 2C5.58877 2 2 5.58877 2 10C2 14.4112 5.58877 18 10 18C14.4112 18 18 14.4112 18 10C18 5.58877 14.4112 2 10 2ZM15.2894 5.68923C16.2411 6.852 16.8174 8.333 16.8324 9.94584C16.6071 9.89819 14.348 9.43997 12.0743 9.7259C11.8887 9.27297 11.7136 8.87452 11.4737 8.38352C14.0002 7.352 15.1453 5.8841 15.2894 5.68923ZM14.5297 4.89903C14.4068 5.0741 13.3782 6.45665 10.9484 7.36739C9.82864 5.3101 8.58758 3.62003 8.39871 3.36713C10.5657 2.84477 12.8492 3.4081 14.5297 4.89903ZM7.09487 3.82645C7.27503 4.07352 8.4961 5.76568 9.62832 7.77835C6.43197 8.62716 3.61671 8.61494 3.3111 8.6109C3.75419 6.49048 5.18316 4.72816 7.09487 3.82645ZM3.16677 10.0104C3.16677 9.94055 3.16816 9.871 3.17026 9.80161C3.46923 9.80774 6.78058 9.85042 10.193 8.82916C10.3886 9.212 10.5755 9.60061 10.747 9.98881C8.2761 10.6848 6.0311 12.6832 4.92345 14.5793C3.83206 13.3679 3.16677 11.7655 3.16677 10.0104ZM5.80571 15.4012C6.51948 13.942 8.45661 12.0585 11.2115 11.1187C12.1708 13.6117 12.5676 15.7011 12.6692 16.3006C10.472 17.2365 7.83 16.9797 5.80571 15.4012ZM13.818 15.675C13.7479 15.2593 13.3842 13.259 12.4905 10.803C14.6318 10.4602 16.5131 11.0213 16.7468 11.0951C16.4423 12.9964 15.3509 14.6384 13.818 15.675Z"/>
</svg>
