<svg width="20" height="20" viewBox="0 0 20 20" xmlns="http://www.w3.org/2000/svg">
<path d="M10.0018 5.8987C7.73162 5.8987 5.9005 7.72982 5.9005 9.99999C5.9005 12.2701 7.73162 14.1013 10.0018 14.1013C12.2719 14.1013 14.1031 12.2701 14.1031 9.99999C14.1031 7.72982 12.2719 5.8987 10.0018 5.8987ZM10.0018 12.6664C8.53475 12.6664 7.33542 11.4706 7.33542 9.99999C7.33542 8.52938 8.53118 7.33362 10.0018 7.33362C11.4724 7.33362 12.6682 8.52938 12.6682 9.99999C12.6682 11.4706 11.4688 12.6664 10.0018 12.6664ZM15.2274 5.73094C15.2274 6.26278 14.7991 6.68755 14.2708 6.68755C13.739 6.68755 13.3142 6.25922 13.3142 5.73094C13.3142 5.20266 13.7426 4.77433 14.2708 4.77433C14.7991 4.77433 15.2274 5.20266 15.2274 5.73094ZM17.9438 6.70183C17.8831 5.4204 17.5904 4.28532 16.6516 3.35012C15.7165 2.41493 14.5814 2.12224 13.2999 2.05799C11.9793 1.98303 8.02075 1.98303 6.70006 2.05799C5.4222 2.11867 4.28712 2.41136 3.34835 3.34656C2.40959 4.28175 2.12047 5.41683 2.05622 6.69826C1.98126 8.01895 1.98126 11.9775 2.05622 13.2981C2.1169 14.5796 2.40959 15.7147 3.34835 16.6498C4.28712 17.585 5.41863 17.8777 6.70006 17.942C8.02075 18.0169 11.9793 18.0169 13.2999 17.942C14.5814 17.8813 15.7165 17.5886 16.6516 16.6498C17.5868 15.7147 17.8795 14.5796 17.9438 13.2981C18.0187 11.9775 18.0187 8.02252 17.9438 6.70183ZM16.2376 14.7152C15.9592 15.4148 15.4202 15.9538 14.717 16.2358C13.664 16.6534 11.1654 16.557 10.0018 16.557C8.83815 16.557 6.33597 16.6498 5.28656 16.2358C4.58695 15.9574 4.04796 15.4184 3.76598 14.7152C3.34835 13.6622 3.44473 11.1636 3.44473 9.99999C3.44473 8.83635 3.35192 6.33417 3.76598 5.28476C4.04439 4.58515 4.58338 4.04616 5.28656 3.76418C6.33954 3.34656 8.83815 3.44293 10.0018 3.44293C11.1654 3.44293 13.6676 3.35012 14.717 3.76418C15.4166 4.0426 15.9556 4.58158 16.2376 5.28476C16.6552 6.33774 16.5588 8.83635 16.5588 9.99999C16.5588 11.1636 16.6552 13.6658 16.2376 14.7152Z"/>
</svg>
