<svg width="20" height="20" viewBox="0 0 20 20" xmlns="http://www.w3.org/2000/svg">
<path d="M3.89539 6.24232C3.91524 6.04716 3.83916 5.85199 3.69361 5.71968L2.20178 3.92022V3.65228H6.83936L10.4251 11.515L13.5774 3.65228H18V3.92022L16.7232 5.14412C16.614 5.22681 16.5578 5.36574 16.5809 5.50136V14.4987C16.5578 14.6343 16.614 14.7732 16.7232 14.8559L17.9702 16.0798V16.3478H11.6953V16.0798L12.9886 14.8262C13.1143 14.7005 13.1143 14.6608 13.1143 14.4689V7.19828L9.51871 16.3246H9.03246L4.85135 7.19828V13.3145C4.81497 13.5725 4.90097 13.8305 5.0829 14.0157L6.76328 16.0534V16.3213H2V16.0567L3.68038 14.0157C3.859 13.8305 3.9417 13.5692 3.89539 13.3145V6.24232Z"/>
</svg>
