<svg width="20" height="20" viewBox="0 0 20 20" xmlns="http://www.w3.org/2000/svg">
<path d="M3.14286 4.28571H8.85714C9.16025 4.28571 9.45094 4.40611 9.66527 4.62044C9.87959 4.83477 10 5.12546 10 5.42856C10 5.73167 9.87959 6.02236 9.66527 6.23668C9.45094 6.45101 9.16025 6.57142 8.85714 6.57142H3.14286C2.83975 6.57142 2.54906 6.45101 2.33474 6.23668C2.12041 6.02236 2 5.73167 2 5.42856C2 5.12546 2.12041 4.83477 2.33474 4.62044C2.54906 4.40611 2.83975 4.28571 3.14286 4.28571ZM11.1429 13.4286H16.8571C17.1602 13.4286 17.4509 13.549 17.6653 13.7633C17.8796 13.9776 18 14.2683 18 14.5714C18 14.8745 17.8796 15.1652 17.6653 15.3795C17.4509 15.5939 17.1602 15.7143 16.8571 15.7143H11.1429C10.8398 15.7143 10.5491 15.5939 10.3347 15.3795C10.1204 15.1652 10 14.8745 10 14.5714C10 14.2683 10.1204 13.9776 10.3347 13.7633C10.5491 13.549 10.8398 13.4286 11.1429 13.4286ZM3.14286 8.85713H16.8571C17.1602 8.85713 17.4509 8.97754 17.6653 9.19187C17.8796 9.4062 18 9.69689 18 9.99999C18 10.3031 17.8796 10.5938 17.6653 10.8081C17.4509 11.0224 17.1602 11.1428 16.8571 11.1428H3.14286C2.83975 11.1428 2.54906 11.0224 2.33474 10.8081C2.12041 10.5938 2 10.3031 2 9.99999C2 9.69689 2.12041 9.4062 2.33474 9.19187C2.54906 8.97754 2.83975 8.85713 3.14286 8.85713Z"/>
</svg>
