<svg width="20" height="20" viewBox="0 0 20 20" fill="none" xmlns="http://www.w3.org/2000/svg">
<path d="M14.8193 13.3092C14.2089 13.3092 13.6627 13.5502 13.245 13.9277L7.51811 10.5944C7.55827 10.4096 7.59039 10.2249 7.59039 10.0321C7.59039 9.83936 7.55827 9.65462 7.51811 9.46988L13.1808 6.16867C13.6145 6.57028 14.1848 6.81928 14.8193 6.81928C16.1526 6.81928 17.2289 5.74297 17.2289 4.40964C17.2289 3.07631 16.1526 2 14.8193 2C13.486 2 12.4097 3.07631 12.4097 4.40964C12.4097 4.60241 12.4418 4.78715 12.482 4.97189L6.81931 8.27309C6.38558 7.87149 5.81529 7.62249 5.18076 7.62249C3.84742 7.62249 2.77112 8.69879 2.77112 10.0321C2.77112 11.3655 3.84742 12.4418 5.18076 12.4418C5.81529 12.4418 6.38558 12.1928 6.81931 11.7912L12.5382 15.1325C12.498 15.3012 12.4739 15.4779 12.4739 15.6546C12.4739 16.9478 13.5261 18 14.8193 18C16.1125 18 17.1647 16.9478 17.1647 15.6546C17.1647 14.3614 16.1125 13.3092 14.8193 13.3092Z" fill="#EDEDF5"/>
</svg>
