<?xml version="1.0" encoding="utf-8"?><svg viewBox="0 0 52 30" xmlns="http://www.w3.org/2000/svg" xmlns:xlink="http://www.w3.org/1999/xlink"><style>:root>svg{display:none}:root>svg:target{display:block}</style><svg viewBox="0 0 20 20" id="behance" xmlns="http://www.w3.org/2000/svg"><path d="M8.444 9.48c.884-.423 1.345-1.062 1.345-2.056 0-1.961-1.461-2.44-3.147-2.44H2v9.845h4.772c1.79 0 3.47-.858 3.47-2.858 0-1.236-.586-2.15-1.798-2.492zm-4.28-2.815h2.03c.781 0 1.484.22 1.484 1.125 0 .836-.547 1.173-1.32 1.173H4.164V6.665zm2.314 6.492H4.164v-2.711h2.358c.953 0 1.556.397 1.556 1.405 0 .995-.72 1.306-1.6 1.306zm9.958-6.686h-3.992V5.5h3.992v.97zM18 11.368c0-2.108-1.233-3.867-3.47-3.867-2.172 0-3.647 1.634-3.647 3.773 0 2.22 1.398 3.741 3.648 3.741 1.702 0 2.805-.766 3.336-2.397h-1.728c-.186.608-.953.93-1.547.93-1.148 0-1.75-.672-1.75-1.813h5.141c.009-.117.017-.242.017-.367zm-5.156-.867c.064-.936.687-1.522 1.625-1.522.984 0 1.478.578 1.562 1.522h-3.187z"/></svg><svg viewBox="0 0 20 20" id="dribbble" xmlns="http://www.w3.org/2000/svg"><path d="M10 2c-4.411 0-8 3.589-8 8s3.589 8 8 8 8-3.589 8-8-3.589-8-8-8zm5.29 3.69a6.8 6.8 0 011.542 4.256c-.225-.048-2.484-.506-4.758-.22a21.18 21.18 0 00-.6-1.342c2.526-1.032 3.671-2.5 3.815-2.695zm-.76-.791c-.123.175-1.152 1.558-3.582 2.468a36.476 36.476 0 00-2.55-4A6.816 6.816 0 0114.53 4.9zM7.095 3.826c.18.248 1.401 1.94 2.533 3.952-3.196.85-6.011.837-6.317.833a6.858 6.858 0 013.784-4.785zM3.167 10.01c0-.07.001-.139.003-.208.3.006 3.61.048 7.023-.973.196.383.383.772.554 1.16-2.47.696-4.716 2.694-5.824 4.59a6.806 6.806 0 01-1.756-4.569zm2.639 5.391c.713-1.459 2.65-3.342 5.405-4.282.96 2.493 1.357 4.582 1.458 5.182a6.82 6.82 0 01-6.863-.9zm8.012.274c-.07-.416-.434-2.416-1.327-4.872 2.14-.343 4.022.218 4.256.292a6.845 6.845 0 01-2.929 4.58z"/></svg><svg viewBox="0 0 20 20" id="inst" xmlns="http://www.w3.org/2000/svg"><path d="M10.002 5.899A4.095 4.095 0 005.9 10a4.095 4.095 0 004.102 4.101A4.095 4.095 0 0014.103 10a4.095 4.095 0 00-4.101-4.101zm0 6.767A2.671 2.671 0 017.335 10a2.669 2.669 0 012.667-2.666A2.669 2.669 0 0112.668 10c0 1.47-1.2 2.666-2.666 2.666zm5.225-6.935a.954.954 0 01-.956.957.957.957 0 11.957-.957zm2.717.97c-.06-1.28-.354-2.416-1.292-3.35-.936-.936-2.07-1.229-3.352-1.293-1.32-.075-5.28-.075-6.6 0-1.278.06-2.413.353-3.352 1.289-.938.935-1.228 2.07-1.292 3.351-.075 1.32-.075 5.28 0 6.6.06 1.282.354 2.417 1.292 3.352.94.935 2.07 1.228 3.352 1.292 1.32.075 5.28.075 6.6 0 1.281-.06 2.416-.353 3.352-1.292.935-.935 1.227-2.07 1.292-3.352.075-1.32.075-5.275 0-6.596zm-1.706 8.014a2.7 2.7 0 01-1.521 1.52c-1.053.418-3.552.322-4.715.322-1.164 0-3.666.093-4.715-.321a2.7 2.7 0 01-1.521-1.52c-.418-1.054-.321-3.552-.321-4.716 0-1.164-.093-3.666.321-4.715a2.7 2.7 0 011.52-1.52c1.054-.418 3.552-.322 4.716-.322 1.163 0 3.666-.093 4.715.321a2.7 2.7 0 011.52 1.52c.418 1.054.322 3.552.322 4.716 0 1.164.096 3.666-.321 4.715z"/></svg><svg fill="none" viewBox="0 0 52 30" id="logo" xmlns="http://www.w3.org/2000/svg"><path d="M40.87 30H52L33.796 0l-1.668 2.748 14.87 24.505h-4.46l-12.64-20.83L26 12.848 18.204 0l-1.667 2.747 14.87 24.506h-4.461l-12.64-20.83-5.625 9.27 7.021 11.56H11.13L6.4 19.455 0 30h3.334L6.4 24.95 9.463 30h11.243l-8.69-14.307 2.29-3.775L25.28 30h11.13l-8.742-14.406 2.231-3.676L40.87 30z" fill="#EDEDF5"/></svg><svg viewBox="0 0 20 20" id="medium" xmlns="http://www.w3.org/2000/svg"><path d="M3.895 6.242a.624.624 0 00-.201-.522l-1.492-1.8v-.268h4.637l3.586 7.863 3.152-7.863H18v.268l-1.277 1.224a.373.373 0 00-.142.357V14.5a.373.373 0 00.142.357l1.247 1.224v.268h-6.275v-.268l1.294-1.254c.125-.126.125-.165.125-.357V7.2L9.52 16.324h-.487l-4.18-9.127v6.117a.833.833 0 00.23.7l1.681 2.038v.268H2v-.264l1.68-2.041a.806.806 0 00.215-.701V6.242z"/></svg><svg viewBox="0 0 20 20" id="menu" xmlns="http://www.w3.org/2000/svg"><path d="M3.143 4.286h5.714a1.143 1.143 0 110 2.285H3.143a1.143 1.143 0 110-2.285zm8 9.143h5.714a1.143 1.143 0 010 2.285h-5.714a1.143 1.143 0 010-2.285zm-8-4.572h13.714a1.143 1.143 0 010 2.286H3.143a1.143 1.143 0 110-2.286z"/></svg></svg>